<svg width="800" height="400" viewBox="0 0 800 400" fill="none" xmlns="http://www.w3.org/2000/svg">
<rect width="800" height="400" rx="5" fill="#D9D9D9"/>
<g clip-path="url(#clip0_59_6)">
<path d="M433.592 158.625H366.092C360.035 158.625 354.999 163.661 354.999 169.875V226.125C354.999 232.339 360.035 237.375 366.09 237.375H433.59C439.804 237.375 444.84 232.339 444.84 226.125V169.875C444.842 163.661 439.955 158.625 433.592 158.625ZM374.529 169.875C379.189 169.875 382.967 173.653 382.967 178.312C382.967 182.972 379.346 186.75 374.529 186.75C369.713 186.75 366.092 182.972 366.092 178.312C366.092 173.653 370.026 169.875 374.529 169.875ZM433.416 224.648C432.924 225.562 431.975 226.125 430.938 226.125H369.416C368.358 226.125 367.389 225.531 366.909 224.587C366.429 223.643 366.52 222.511 367.144 221.655L379.448 204.78C379.979 204.047 380.822 203.625 381.719 203.625C382.615 203.625 383.462 204.054 383.992 204.781L389.698 212.605L406.098 188.153C406.627 187.225 407.506 186.75 408.438 186.75C409.369 186.75 410.257 187.22 410.777 188.002L433.277 221.752C433.856 222.609 433.908 223.717 433.416 224.648Z" fill="white"/>
</g>
<defs>
<clipPath id="clip0_59_6">
<rect width="90" height="90" fill="white" transform="translate(355 153)"/>
</clipPath>
</defs>
</svg>
