<?xml version="1.0" standalone="no"?>
<!DOCTYPE svg PUBLIC "-//W3C//DTD SVG 20010904//EN"
 "http://www.w3.org/TR/2001/REC-SVG-20010904/DTD/svg10.dtd">
<svg version="1.0" xmlns="http://www.w3.org/2000/svg"
 width="547.000000pt" height="160.000000pt" viewBox="0 0 547.000000 160.000000"
 preserveAspectRatio="xMidYMid meet">

<g transform="translate(0.000000,160.000000) scale(0.100000,-0.100000)"
fill="#000000" stroke="none">
<path d="M530 1231 c-6 -12 -10 -116 -10 -270 0 -214 2 -252 16 -265 13 -14
63 -16 393 -16 353 0 379 1 394 18 15 16 17 50 17 270 0 214 -2 253 -16 266
-13 14 -64 16 -399 16 -370 0 -385 -1 -395 -19z m769 -15 c8 -9 11 -86 9 -257
l-3 -244 -375 0 -375 0 -3 249 c-2 193 1 251 10 258 7 4 173 8 369 8 290 0
359 -3 368 -14z"/>
<path d="M616 1164 c-13 -13 -16 -45 -16 -199 0 -179 1 -184 22 -199 33 -24
583 -24 616 0 21 15 22 20 22 198 0 164 -2 185 -18 199 -16 15 -53 17 -315 17
-255 0 -298 -2 -311 -16z m614 -23 c12 -23 14 -330 2 -349 -7 -9 -75 -12 -308
-10 l-299 3 -3 174 c-2 119 1 178 9 187 9 11 67 14 300 14 275 0 289 -1 299
-19z"/>
<path d="M3090 725 l0 -365 80 0 80 0 0 145 0 145 105 0 105 0 0 70 0 69 -102
3 -103 3 -3 78 -3 77 115 0 115 0 17 58 c9 31 19 63 21 70 4 9 -42 12 -211 12
l-216 0 0 -365z"/>
<path d="M4400 725 l0 -365 80 0 80 0 0 365 0 365 -80 0 -80 0 0 -365z"/>
<path d="M3600 1010 l0 -70 75 0 75 0 0 70 0 70 -75 0 -75 0 0 -70z"/>
<path d="M4720 965 l0 -75 -30 0 -30 0 0 -60 0 -60 30 0 30 0 0 -138 c0 -75 4
-153 10 -171 23 -80 109 -121 223 -107 l55 7 -5 42 c-9 86 -9 86 -52 80 -31
-4 -43 -1 -60 16 -19 19 -21 32 -21 130 0 60 -3 116 -6 125 -5 13 1 16 28 16
31 0 36 5 66 60 l33 60 -60 0 -61 0 0 75 0 75 -75 0 -75 0 0 -75z"/>
<path d="M2685 891 c-120 -30 -172 -125 -163 -299 5 -100 28 -156 81 -196 47
-36 132 -51 205 -36 48 10 65 20 105 61 26 27 47 55 47 63 0 8 -21 21 -50 31
l-50 17 -31 -26 c-59 -50 -159 -22 -159 45 l0 29 156 0 157 0 -6 69 c-8 98
-26 149 -67 192 -48 50 -140 70 -225 50z m117 -138 c9 -10 19 -28 22 -40 7
-23 6 -23 -73 -23 -91 0 -101 11 -56 55 29 30 84 34 107 8z"/>
<path d="M1724 873 c3 -10 28 -99 56 -198 28 -99 60 -211 71 -248 l20 -68 82
3 81 3 32 133 c17 73 33 135 37 138 3 3 20 -58 38 -135 l34 -141 83 0 c45 0
82 2 82 5 0 4 131 460 146 508 5 15 -3 17 -75 17 l-80 0 -10 -37 c-6 -21 -22
-87 -37 -146 -15 -59 -28 -106 -30 -104 -2 2 -19 66 -37 143 l-34 139 -80 3
-79 3 -12 -53 c-47 -208 -56 -239 -62 -227 -4 8 -22 74 -40 147 l-32 132 -80
0 c-71 0 -79 -2 -74 -17z"/>
<path d="M3553 830 l-32 -60 42 0 42 0 -3 -205 -3 -205 75 0 76 0 0 265 0 265
-82 0 -83 0 -32 -60z"/>
<path d="M3834 875 c3 -9 35 -65 71 -126 36 -61 65 -113 65 -116 0 -5 -111
-193 -148 -250 l-14 -23 80 0 81 0 46 75 c26 41 51 77 55 80 5 3 29 -31 54
-75 l47 -80 79 0 c44 0 80 2 80 4 0 3 -36 64 -79 137 l-79 131 79 129 79 129
-90 0 -89 0 -36 -65 c-20 -36 -38 -65 -40 -65 -1 0 -21 29 -44 65 l-40 65 -82
0 c-69 0 -80 -2 -75 -15z"/>
<path d="M525 616 c-11 -8 -47 -69 -80 -136 l-59 -123 23 -18 c22 -18 49 -19
518 -19 322 0 501 4 514 10 10 6 19 19 19 29 0 24 -97 221 -123 249 l-20 22
-387 0 c-313 0 -389 -3 -405 -14z m775 -19 c17 -8 42 -46 77 -117 28 -58 52
-111 52 -117 1 -10 -40 -13 -174 -13 l-175 0 0 25 0 25 -155 0 -155 0 0 -25 0
-25 -175 0 c-96 0 -175 2 -175 5 0 3 27 59 60 124 36 73 66 121 77 124 10 3
176 5 368 6 259 0 356 -2 375 -12z"/>
<path d="M572 548 c4 -10 86 -14 356 -16 309 -2 352 0 352 13 0 13 -45 15
-356 15 -280 0 -355 -3 -352 -12z"/>
<path d="M533 478 c6 -19 778 -19 785 0 3 9 -80 12 -393 12 -313 0 -396 -3
-392 -12z"/>
</g>
</svg>
